<?xml version="1.0" standalone="no"?>
<!DOCTYPE svg PUBLIC "-//W3C//DTD SVG 20010904//EN"
 "http://www.w3.org/TR/2001/REC-SVG-20010904/DTD/svg10.dtd">
<svg version="1.0" xmlns="http://www.w3.org/2000/svg"
 width="989.000000pt" height="1280.000000pt" viewBox="0 0 989.000000 1280.000000"
 preserveAspectRatio="xMidYMid meet">
<metadata>
Created by potrace 1.15, written by Peter Selinger 2001-2017
</metadata>
<g transform="translate(0.000000,1280.000000) scale(0.100000,-0.100000)"
fill="#000000" stroke="none">
<path d="M5795 12507 c-37 -15 -113 -61 -169 -104 -31 -23 -55 -32 -89 -34
-25 -2 -49 0 -53 4 -16 15 -44 5 -69 -25 -15 -17 -34 -32 -43 -33 -9 0 -24 -5
-32 -11 -21 -13 -50 -70 -40 -81 4 -4 10 -32 12 -61 4 -41 2 -55 -9 -59 -8 -3
-19 0 -25 8 -7 11 -9 9 -5 -8 3 -14 -3 -29 -18 -43 -22 -21 -24 -21 -35 -3
-10 16 -10 15 -5 -5 10 -34 -40 -86 -67 -71 -11 6 -23 8 -26 4 -3 -3 4 -8 16
-12 26 -6 28 -16 6 -34 -12 -10 -17 -10 -23 -1 -5 8 -13 0 -24 -23 -21 -44
-21 -46 -2 -39 28 11 15 -14 -33 -68 -27 -29 -64 -82 -81 -118 -18 -36 -40
-76 -50 -88 l-16 -22 -35 29 c-19 17 -38 30 -42 31 -5 0 -8 -71 -9 -157 -1
-87 -4 -185 -8 -218 l-6 -60 -44 3 c-32 2 -96 28 -225 92 -211 104 -373 198
-590 344 -161 109 -399 252 -516 311 -202 102 -489 163 -570 122 -35 -18 -68
-71 -76 -123 -14 -98 64 -374 148 -522 86 -148 331 -530 442 -685 58 -82 145
-192 192 -245 107 -120 152 -179 197 -259 115 -203 130 -369 59 -632 -58 -213
-75 -355 -70 -594 3 -166 7 -218 19 -242 33 -63 52 -299 50 -630 -1 -170 -6
-339 -12 -374 -6 -39 -31 -109 -63 -180 -30 -64 -66 -161 -81 -216 -41 -154
-106 -348 -121 -366 -8 -9 -11 -19 -7 -23 5 -4 2 -6 -6 -4 -13 3 -49 -94 -86
-235 -16 -60 -47 -279 -66 -472 -17 -166 -5 -706 16 -748 9 -18 29 -97 45
-177 16 -80 50 -217 76 -305 78 -266 103 -378 149 -669 47 -291 67 -443 85
-635 l11 -114 -35 -66 c-41 -79 -79 -198 -96 -300 -14 -83 -9 -162 20 -302 24
-113 25 -149 4 -101 -8 17 -16 32 -17 32 -7 0 15 -134 24 -151 5 -10 9 -33 9
-52 0 -23 8 -41 25 -57 27 -25 33 -50 13 -50 -9 -1 -8 -5 3 -13 21 -16 79
-213 79 -270 0 -65 -82 -376 -141 -533 -32 -84 -57 -173 -69 -243 -10 -60 -24
-119 -30 -131 -6 -11 -10 -40 -8 -63 3 -35 7 -43 26 -45 17 -3 22 -8 18 -19
-8 -20 19 -63 40 -63 12 0 14 -7 9 -34 -6 -29 -3 -37 18 -51 14 -8 31 -14 38
-13 8 2 15 -7 17 -20 5 -33 45 -49 73 -31 20 14 24 12 50 -13 32 -33 62 -35
105 -9 26 16 37 35 62 108 16 48 40 115 52 148 20 51 25 87 31 240 7 181 21
271 70 450 13 44 22 98 21 120 -4 134 -1 187 13 240 9 33 21 79 26 103 6 24
17 46 25 49 8 3 14 13 14 22 0 14 -2 14 -10 1 -16 -25 -13 11 5 54 8 20 13 36
10 36 -2 0 7 16 20 36 27 40 32 59 13 48 -8 -4 -10 -3 -5 2 5 5 14 9 20 9 6 0
14 15 18 33 5 27 4 30 -7 21 -11 -9 -14 -8 -14 1 0 6 8 14 19 17 14 3 20 17
24 56 4 29 9 63 12 77 3 14 -1 10 -9 -10 -13 -31 -15 -32 -15 -10 -1 33 18
100 28 100 5 0 6 -12 3 -27 -2 -16 -2 -26 1 -23 3 3 8 24 11 48 3 23 8 47 12
54 4 7 3 8 -4 4 -20 -12 -14 20 22 112 18 48 37 98 41 112 4 14 18 46 31 71
13 26 34 96 48 155 13 60 41 161 61 224 69 220 78 299 80 710 3 476 3 470 16
470 9 0 10 -142 5 -562 -6 -492 -5 -576 9 -668 38 -250 38 -235 -1 -428 -30
-148 -37 -205 -41 -347 -5 -152 -3 -179 16 -252 25 -98 26 -107 6 -99 -9 3
-15 0 -15 -9 0 -7 8 -16 19 -20 14 -4 20 -19 25 -67 3 -33 6 -73 6 -87 l-1
-26 -14 30 c-13 29 -13 29 -14 5 0 -14 8 -45 19 -69 24 -52 25 -65 5 -57 -8 3
-15 1 -15 -3 0 -5 7 -11 15 -15 17 -6 21 -61 5 -71 -6 -3 -10 -18 -10 -32 0
-22 2 -24 16 -12 14 11 15 8 13 -32 -2 -25 0 -49 3 -54 3 -6 9 -53 12 -105 15
-202 28 -309 53 -420 37 -168 42 -347 14 -467 -38 -161 -29 -192 80 -270 132
-94 177 -155 229 -307 42 -126 119 -223 188 -241 14 -3 41 -20 59 -36 42 -36
115 -41 155 -9 19 14 34 18 61 13 29 -4 39 -1 58 21 12 14 28 26 35 26 14 0
39 38 31 47 -3 3 3 21 15 41 31 56 19 87 -77 199 -46 54 -112 121 -145 148
-75 61 -113 107 -188 224 -31 49 -70 108 -86 131 -40 56 -43 116 -16 320 20
154 64 392 75 410 3 4 7 28 10 51 7 51 21 71 35 49 8 -12 10 -9 10 12 0 14 -6
28 -13 30 -11 2 -10 20 6 93 10 50 19 101 19 114 0 15 3 20 8 12 5 -8 12 0 23
26 9 23 12 42 6 49 -6 7 -4 22 6 40 18 35 19 55 3 52 -7 -2 -14 7 -16 19 -2
14 3 23 17 28 12 3 24 18 27 33 3 15 8 36 11 47 l6 20 -23 -20 -23 -20 10 20
c6 11 8 25 6 32 -2 6 1 14 6 18 7 4 9 -1 5 -12 -5 -15 -4 -16 5 -3 6 8 15 39
22 68 9 45 8 56 -4 70 -14 15 -14 26 -1 97 8 44 24 110 35 147 11 36 19 77 16
90 -4 19 -5 18 -6 -7 -1 -16 -6 -37 -12 -45 -8 -11 -9 -5 -5 25 3 22 6 56 6
75 0 26 3 31 10 20 8 -13 10 -13 10 2 0 9 -4 19 -8 22 -5 3 -8 126 -7 273 1
261 2 273 39 481 27 150 49 246 77 323 57 160 133 475 209 859 21 107 63 285
93 395 30 110 65 259 77 330 19 108 27 133 46 150 24 20 24 24 24 204 0 199
-10 337 -44 589 l-22 163 43 77 c28 52 51 113 69 188 27 110 27 112 11 180 -9
38 -23 114 -32 169 -27 189 -46 221 -187 325 -111 83 -188 156 -339 321 l-76
84 12 60 c6 34 20 70 30 81 11 12 27 34 36 51 15 28 21 30 92 36 125 9 209 57
276 158 43 64 69 133 73 192 l3 38 18 -22 c14 -17 17 -32 12 -61 -7 -42 -30
-94 -46 -103 -16 -10 0 -25 27 -25 24 0 24 0 8 -32 -19 -39 -7 -28 30 27 l28
40 -4 -37 c-5 -44 5 -38 21 14 14 43 50 80 37 38 -8 -26 -10 -46 -7 -67 1 -17
48 -17 54 0 2 6 8 9 12 5 5 -5 1 -16 -7 -25 -8 -10 -19 -25 -23 -33 -14 -26
57 43 76 75 13 21 19 25 19 13 0 -39 38 -7 64 52 14 32 15 33 16 10 1 -49 17
3 23 75 5 66 -12 217 -29 259 -5 14 -4 17 4 12 8 -5 12 3 12 23 0 20 -7 34
-20 41 -11 6 -27 27 -35 47 -18 42 -18 46 -5 38 6 -3 10 -1 10 4 0 6 -5 11
-10 11 -11 0 -50 59 -50 75 0 6 10 -7 22 -27 25 -43 29 -45 52 -20 15 18 12
23 -68 104 -103 104 -113 129 -87 223 15 54 26 72 70 113 36 34 51 56 51 74 0
15 5 30 10 33 14 9 38 57 44 90 3 15 12 35 21 45 8 9 15 21 15 26 0 4 -7 -2
-16 -14 -20 -28 -40 -28 -48 1 -9 34 -9 34 37 56 51 25 82 56 91 91 5 18 1 15
-15 -12 -34 -56 -43 -46 -14 12 18 35 26 69 27 108 1 33 7 63 15 71 10 9 14
34 12 79 l-2 66 47 43 48 43 -11 72 c-18 125 -18 158 -1 158 8 0 26 -9 40 -20
36 -28 46 -24 13 5 l-28 26 35 -21 c45 -26 64 -26 25 0 -16 11 -26 20 -21 20
5 0 3 7 -4 15 -15 18 -7 19 18 4 14 -9 26 -8 50 5 18 9 32 21 32 27 0 6 -8 6
-21 -2 -16 -8 -20 -8 -14 0 4 8 -1 10 -17 6 -16 -4 -29 -1 -38 10 -11 14 -10
15 11 6 17 -6 30 -5 42 4 16 12 16 14 -7 28 -26 17 -39 60 -23 76 7 7 2 8 -14
4 l-24 -5 22 16 c13 10 28 27 34 39 9 18 9 20 -2 10 -24 -24 -40 -15 -37 20 2
26 7 32 25 30 11 -1 27 4 33 13 11 12 10 13 -3 8 -11 -4 -15 0 -14 14 0 12 5
18 9 16 5 -3 12 5 16 17 7 17 2 29 -26 56 -19 20 -31 40 -28 49 3 8 0 14 -7
14 -28 0 -97 101 -97 141 0 5 23 -9 51 -31 28 -22 58 -40 67 -40 10 1 4 7 -13
15 -24 11 -26 14 -10 15 12 1 4 7 -23 17 -53 19 -122 105 -122 153 l0 30 64 0
c47 0 69 5 81 17 19 18 38 63 31 71 -3 2 -8 -7 -11 -21 -8 -32 -35 -58 -35
-34 0 10 -6 14 -14 11 -18 -7 -129 96 -149 139 -10 21 -14 48 -11 77 4 33 3
41 -5 30 -12 -17 -12 -18 -46 45 l-28 50 26 -24 c14 -12 30 -20 36 -17 5 4 42
10 81 15 39 5 77 15 86 22 23 19 10 21 -30 4 -35 -15 -120 -16 -114 -2 2 3
-11 21 -29 39 -49 51 -96 153 -133 293 -28 102 -68 173 -138 242 -66 65 -122
105 -194 138 -58 27 -96 30 -143 12z m-355 -157 c0 -5 -5 -10 -11 -10 -5 0 -7
5 -4 10 3 6 8 10 11 10 2 0 4 -4 4 -10z m-47 -57 c-7 -3 -13 -11 -13 -19 0 -8
-14 -29 -32 -47 -17 -17 -29 -24 -25 -15 3 9 9 32 12 51 6 30 10 34 38 34 18
0 26 -2 20 -4z m-23 -105 c0 -25 -3 -29 -10 -18 -13 20 -13 50 0 50 6 0 10
-15 10 -32z m1135 -746 c-3 -3 -16 5 -28 17 l-22 23 28 -17 c15 -10 25 -20 22
-23z m-2508 -297 c249 -95 276 -107 396 -166 123 -61 211 -128 246 -187 40
-69 66 -97 124 -133 28 -18 66 -45 82 -60 17 -15 43 -35 60 -43 l29 -15 -54
-25 c-72 -31 -189 -42 -230 -21 -16 8 -54 15 -84 15 -78 0 -100 11 -153 82
-73 98 -239 257 -338 325 -49 34 -106 79 -126 100 -40 42 -163 203 -155 203 2
0 94 -34 203 -75z m2631 -191 c-3 -27 -4 -26 -9 8 -3 22 -1 34 4 29 5 -5 7
-21 5 -37z m-266 -616 c-5 -5 -19 10 -32 35 l-23 43 22 65 c34 101 36 100 39
-20 1 -63 -1 -118 -6 -123z m120 72 c-7 -20 -32 -56 -32 -47 0 5 5 29 12 55 9
36 13 42 18 26 4 -10 5 -26 2 -34z m-166 -85 c9 -40 -4 -27 -16 15 -6 20 -6
30 -1 24 5 -5 13 -22 17 -39z m-41 -63 c3 -22 1 -50 -6 -67 l-12 -30 -9 55
c-5 30 -6 60 -4 67 10 25 24 13 31 -25z m135 21 c0 -10 -4 -24 -9 -31 -6 -11
-9 -10 -13 5 -3 10 -3 24 -1 31 7 18 23 15 23 -5z m-53 -55 c-3 -8 -6 -5 -6 6
-1 11 2 17 5 13 3 -3 4 -12 1 -19z m36 -86 c7 -29 16 -49 20 -46 4 4 7 -10 7
-32 0 -34 -30 -104 -45 -104 -3 0 -4 42 -3 93 2 50 -1 108 -6 127 -6 25 -6 32
2 25 6 -6 17 -34 25 -63z m-796 -1 c27 -16 64 -34 85 -40 43 -14 52 -32 38
-75 -5 -17 -15 -50 -20 -73 -12 -49 -17 -51 -54 -22 -49 39 -97 123 -103 184
-3 30 -3 55 0 55 4 0 28 -13 54 -29z m709 -48 c-1 -50 -3 -56 -23 -59 -19 -3
-23 1 -23 21 0 26 29 95 41 95 3 0 6 -25 5 -57z m-59 -85 c-3 -7 -5 -2 -5 12
0 14 2 19 5 13 2 -7 2 -19 0 -25z m49 -63 c-15 -19 -23 -35 -18 -35 13 0 37
23 57 55 l19 30 6 -25 c6 -20 0 -33 -27 -61 -24 -25 -41 -35 -54 -32 -28 8
-24 52 8 85 36 38 42 27 9 -17z m18 -219 c-3 -8 -12 -17 -20 -20 -18 -7 -18
-1 2 18 19 20 25 20 18 2z m-352 -256 c-4 -3 -10 -9 -13 -13 -3 -5 -9 -1 -12
8 -4 9 -3 13 3 10 6 -3 10 2 10 12 0 15 2 16 10 3 5 -8 6 -17 2 -20z m15 -42
c-3 -8 -6 -5 -6 6 -1 11 2 17 5 13 3 -3 4 -12 1 -19z m160 -10 c-3 -8 -6 -5
-6 6 -1 11 2 17 5 13 3 -3 4 -12 1 -19z m-117 -77 c0 -21 -16 -2 -24 29 -7 24
-6 24 8 6 9 -11 16 -27 16 -35z m89 -231 c59 -96 155 -359 138 -376 -3 -3 -8
10 -12 28 -4 18 -13 42 -20 53 -27 44 -73 168 -68 182 4 11 2 14 -5 9 -8 -5
-10 -1 -5 10 5 13 3 15 -7 9 -8 -5 -11 -4 -7 3 10 15 -3 43 -16 35 -6 -3 -7
-1 -3 5 4 6 -3 29 -14 52 -28 56 -18 50 19 -10z m228 -382 c-3 -8 -6 -5 -6 6
-1 11 2 17 5 13 3 -3 4 -12 1 -19z m-114 -203 c-3 -9 -8 -14 -10 -11 -3 3 -2
9 2 15 9 16 15 13 8 -4z m-1516 -2667 c-3 -8 -6 -5 -6 6 -1 11 2 17 5 13 3 -3
4 -12 1 -19z m-1017 -3067 c8 -21 9 -35 2 -48 -9 -16 -11 -14 -17 12 -4 17 -9
38 -12 48 -7 29 14 19 27 -12z m27 -134 c-3 -7 -10 0 -16 15 -6 15 -7 36 -4
45 5 14 9 10 15 -16 5 -18 7 -38 5 -44z m1734 -149 c-14 -36 -29 -43 -24 -10
8 46 13 56 24 45 6 -6 6 -18 0 -35z m-1593 -1323 c-6 -14 -13 -23 -15 -21 -5
5 15 46 22 46 3 0 -1 -11 -7 -25z"/>
<path d="M5236 12221 c-19 -21 -36 -75 -35 -111 0 -14 6 1 13 32 7 32 21 66
31 78 10 11 16 20 13 20 -3 0 -12 -8 -22 -19z"/>
<path d="M5275 12189 c-4 -6 -5 -12 -2 -15 2 -3 7 2 10 11 7 17 1 20 -8 4z"/>
<path d="M6640 11425 c-8 -9 -8 -15 -2 -15 12 0 26 19 19 26 -2 2 -10 -2 -17
-11z"/>
<path d="M4420 3099 c-7 -11 -10 -23 -7 -25 2 -2 9 7 15 21 14 30 7 33 -8 4z"/>
</g>
</svg>
